<svg width="25" height="25" viewBox="0 0 25 25" fill="none" xmlns="http://www.w3.org/2000/svg">
<path d="M17.3387 9.64367C17.3387 9.42186 17.5194 9.24185 17.7419 9.24185C17.9645 9.24185 18.1452 9.42186 18.1452 9.64367C18.1452 9.86547 17.9645 10.0455 17.7419 10.0455C17.5194 10.0455 17.3387 9.86547 17.3387 9.64367ZM16.5323 11.2509C16.7548 11.2509 16.9355 11.0709 16.9355 10.8491C16.9355 10.6273 16.7548 10.4473 16.5323 10.4473C16.3097 10.4473 16.129 10.6273 16.129 10.8491C16.129 11.0709 16.3097 11.2509 16.5323 11.2509ZM15.3226 12.4564C15.5452 12.4564 15.7258 12.2764 15.7258 12.0546C15.7258 11.8328 15.5452 11.6528 15.3226 11.6528C15.1 11.6528 14.9194 11.8328 14.9194 12.0546C14.9194 12.2764 15.1 12.4564 15.3226 12.4564ZM4.43548 7.63457H5.24194C5.24194 6.52675 6.14637 5.62547 7.25806 5.62547V4.82183C5.70161 4.82183 4.43548 6.08395 4.43548 7.63457ZM14.9194 1.60728C13.3629 1.60728 12.0968 2.86939 12.0968 4.42001H12.9032C12.9032 3.3122 13.8077 2.41092 14.9194 2.41092V1.60728ZM20.9677 4.42001H21.7742C21.7742 3.3122 20.8698 2.41092 19.7581 2.41092V3.21456C20.425 3.21456 20.9677 3.7554 20.9677 4.42001ZM25 6.02729C25 7.25686 24.071 8.27226 22.8762 8.41852C21.8839 10.3806 19.752 12.9386 19.304 13.4674C19.3129 13.4911 19.3262 13.5104 19.3343 13.5349L19.3508 13.6052L20.5964 22.2941L18.8609 23.447L14.171 17.3353L9.88468 20.5386L11.4149 23.8938L9.19476 25L6.16653 21.9823L2.01613 18.2607V16.4746H7.87419C8.19677 16.0848 9.08266 15.0152 10.1657 13.7141L5.13468 10.8491H2.01613C0.904436 10.8491 0 9.94784 0 8.84003C0 7.73221 0.904436 6.83093 2.01613 6.83093C2.32218 6.83093 2.60927 6.90446 2.86976 7.02662C3.16855 4.87688 5.01976 3.21456 7.25806 3.21456C8.49839 3.21456 9.64839 3.71522 10.4839 4.60164V4.42001C10.4839 1.98298 12.4738 0 14.9194 0C15.0153 0 17.0262 0.0180818 18.1218 1.26412C18.9331 0.815693 19.7036 0.803639 19.7581 0.803639C21.6359 0.803639 23.1855 2.23251 23.3685 4.05677C24.2968 4.23678 25 5.05087 25 6.02729V6.02729ZM11.2903 4.82183C11.3867 4.82183 13.5883 4.84715 14.2923 6.53841C14.4911 6.47331 14.6992 6.42911 14.9194 6.42911C15.2665 6.42911 15.6819 6.43393 16.1012 6.70074C16.1589 6.63846 16.2101 6.58381 16.2472 6.54684C17.3964 5.40166 19.7694 4.73946 21.4435 4.991C21.7504 4.42242 22.2185 4.18575 22.5593 4.08811C22.3935 2.6934 21.2016 1.60728 19.7581 1.60728C19.6883 1.60808 18.0008 1.64264 17.3101 3.36363L16.5613 3.06548C16.7944 2.48525 17.1157 2.05651 17.4649 1.73586C16.5911 0.815694 14.9383 0.803639 14.9194 0.803639C12.9185 0.803639 11.2903 2.42578 11.2903 4.42001V4.82183ZM15.554 7.31633C15.3645 7.23476 15.1645 7.23275 14.9194 7.23275C14.2524 7.23275 13.7097 7.7736 13.7097 8.43821H12.9032C12.9032 7.8407 13.1718 7.3091 13.5887 6.94063C13.1399 5.64998 11.3081 5.62547 11.2895 5.62547C9.73387 5.62547 8.46774 6.88759 8.46774 8.43821V8.97343L13.9177 9.2322C14.5581 8.47437 15.1278 7.80615 15.554 7.31633V7.31633ZM5.35927 8.82596L7.66129 8.93526V8.43821C7.66129 6.94987 8.56855 5.66967 9.86008 5.11556C9.17984 4.41399 8.25444 4.01819 7.25806 4.01819C5.25726 4.01819 3.62903 5.64034 3.62903 7.63457H3.61855C3.8746 7.97129 4.03226 8.38597 4.03226 8.84003H3.22581C3.22581 8.17542 2.68306 7.63457 2.01613 7.63457C1.34919 7.63457 0.806452 8.17542 0.806452 8.84003C0.806452 9.50464 1.34919 10.0455 2.01613 10.0455H4.95121L5.35927 8.82596ZM10.6887 13.0861C11.5206 12.0875 12.4266 11.0034 13.2657 10.0057L5.93105 9.65773L5.72903 10.2617L10.6887 13.0861ZM10.3593 23.5209L8.74476 19.9813L7.02177 21.6982L9.35403 24.0216L10.3593 23.5209ZM13.681 16.6968L13.1464 16L17.0911 12.943C17.4996 12.5858 17.9742 12.4468 18.4109 12.5645C18.5641 12.6059 18.6992 12.687 18.8246 12.7855C20.3492 10.9665 22.5806 7.91986 22.5806 6.83093C22.5806 6.41465 22.3617 6.12172 21.9117 5.93608C21.3298 5.69579 20.4863 5.68213 19.6298 5.83643C20.2173 6.78311 19.9661 7.78364 19.7048 8.23649C19.6298 8.36588 19.494 8.43821 19.3544 8.43821C19.2863 8.43821 19.2173 8.42093 19.1536 8.38477C18.9605 8.27427 18.894 8.02835 19.0048 7.83628C19.0258 7.79851 19.5101 6.90125 18.7871 6.04377C18.0016 6.28647 17.2762 6.65815 16.8173 7.11542C15.9407 7.98938 8.45121 17.0412 8.3754 17.1324L8.25484 17.2782H2.82258V17.9031L6.4371 21.1445L8.99758 18.593L9.54315 19.7896L13.681 16.6968ZM18.5577 13.7567C18.4746 13.5277 18.348 13.3798 18.1996 13.34C18.0355 13.2954 17.8177 13.3766 17.604 13.5626L14.2726 16.1455L19.0419 22.3608L19.7258 21.9064L18.5577 13.7567ZM24.1935 6.02729C24.1935 5.36268 23.6508 4.82183 22.9839 4.82183C22.9677 4.82224 22.5504 4.83791 22.2569 5.2116C22.9847 5.52582 23.3871 6.09841 23.3871 6.83093C23.3871 7.01898 23.3448 7.23637 23.2718 7.47344C23.8149 7.21467 24.1935 6.66618 24.1935 6.02729Z" fill="white"/>
</svg>
